<svg width="186" height="57" viewBox="0 0 186 57" fill="none" xmlns="http://www.w3.org/2000/svg">
<path d="M11.3133 57H2.35916C1.62742 57 1.08825 56.847 0.741636 56.5411C0.433537 56.1969 0.279488 55.6614 0.279488 54.9348V17.7607C0.279488 17.0341 0.433537 16.5178 0.741636 16.2118C1.08825 15.8676 1.62742 15.6955 2.35916 15.6955H20.0363C25.274 15.6955 28.8557 16.7281 30.7813 18.7933C32.7069 20.8586 33.6697 23.5548 33.6697 26.8821V34.2252C33.6697 37.5525 32.7069 40.2487 30.7813 42.314C28.8557 44.3792 25.274 45.4118 20.0363 45.4118H13.393V54.9348C13.393 55.6614 13.2196 56.1969 12.873 56.5411C12.5649 56.847 12.045 57 11.3133 57ZM13.2774 26.4232V35.0857H18.4766C19.5934 35.0857 20.3252 34.7988 20.6718 34.2252C21.0184 33.6515 21.1917 33.0013 21.1917 32.2747V29.2342C21.1917 28.5075 21.0184 27.8574 20.6718 27.2837C20.3252 26.71 19.5934 26.4232 18.4766 26.4232H13.2774Z" fill="url(#paint0_linear_74_132)"/>
<path d="M49.8242 26.0216V33.3646H54.1568C55.1581 33.3646 55.8321 33.1161 56.1787 32.6189C56.5253 32.0834 56.6986 31.4333 56.6986 30.6684V28.7179C56.6986 27.953 56.5253 27.3219 56.1787 26.8248C55.8321 26.2893 55.1581 26.0216 54.1568 26.0216H49.8242ZM47.7445 57H38.8481C38.1164 57 37.5772 56.847 37.2306 56.5411C36.9225 56.1969 36.7685 55.6614 36.7685 54.9348V17.7607C36.7685 17.0341 36.9225 16.5178 37.2306 16.2118C37.5772 15.8676 38.1164 15.6955 38.8481 15.6955H58.0851C62.3984 15.6955 65.3639 16.5943 66.9814 18.3918C68.6375 20.151 69.4655 22.4457 69.4655 25.2758V27.9147C69.4655 29.521 69.2151 30.8978 68.7145 32.0452C68.2523 33.1543 67.4243 33.9574 66.2304 34.4546C68.3101 34.6841 69.9854 35.5255 71.2563 36.9788C72.5657 38.4321 73.2204 40.3635 73.2204 42.7729V54.9348C73.2204 55.6614 73.0471 56.1969 72.7005 56.5411C72.3924 56.847 71.8725 57 71.1408 57H62.1866C61.4549 57 60.9157 56.847 60.5691 56.5411C60.261 56.1969 60.107 55.6614 60.107 54.9348V46.1576C60.107 45.3162 59.9337 44.7043 59.587 44.3218C59.2789 43.9011 58.7205 43.6908 57.9118 43.6908H49.8242V54.9348C49.8242 55.6614 49.6509 56.1969 49.3042 56.5411C48.9961 56.847 48.4762 57 47.7445 57Z" fill="url(#paint1_linear_74_132)"/>
<path d="M77.9669 57C77.2352 57 76.696 56.847 76.3494 56.5411C76.0413 56.1969 75.8873 55.6614 75.8873 54.9348V48.1081C75.8873 47.3814 76.0413 46.8651 76.3494 46.5591C76.696 46.2149 77.2352 46.0428 77.9669 46.0428H83.686V26.7674H77.9669C77.2352 26.7674 76.696 26.6144 76.3494 26.3085C76.0413 25.9643 75.8873 25.4288 75.8873 24.7022V17.7607C75.8873 17.0341 76.0413 16.5178 76.3494 16.2118C76.696 15.8676 77.2352 15.6955 77.9669 15.6955H102.576C103.308 15.6955 103.828 15.8676 104.136 16.2118C104.483 16.5178 104.656 17.0341 104.656 17.7607V24.7022C104.656 25.4288 104.483 25.9643 104.136 26.3085C103.828 26.6144 103.308 26.7674 102.576 26.7674H96.9728V46.0428H102.576C103.308 46.0428 103.828 46.2149 104.136 46.5591C104.483 46.8651 104.656 47.3814 104.656 48.1081V54.9348C104.656 55.6614 104.483 56.1969 104.136 56.5411C103.828 56.847 103.308 57 102.576 57H77.9669Z" fill="url(#paint2_linear_74_132)"/>
<path d="M119.587 57H110.98C110.248 57 109.709 56.847 109.362 56.5411C109.054 56.1969 108.9 55.6614 108.9 54.9348V17.7607C108.9 17.0341 109.054 16.5178 109.362 16.2118C109.709 15.8676 110.248 15.6955 110.98 15.6955H120.281C120.897 15.6955 121.397 15.8294 121.783 16.0971C122.206 16.3648 122.591 16.8046 122.938 17.4165L128.137 26.7674C128.33 27.1116 128.484 27.3602 128.599 27.5132C128.753 27.6662 128.946 27.7426 129.177 27.7426H129.697C129.928 27.7426 130.101 27.6662 130.217 27.5132C130.371 27.3602 130.544 27.1116 130.737 26.7674L135.878 17.4165C136.225 16.8046 136.591 16.3648 136.976 16.0971C137.399 15.8294 137.919 15.6955 138.535 15.6955H147.894C148.626 15.6955 149.146 15.8676 149.454 16.2118C149.8 16.5178 149.974 17.0341 149.974 17.7607V54.9348C149.974 55.6614 149.8 56.1969 149.454 56.5411C149.146 56.847 148.626 57 147.894 57H138.998C138.266 57 137.727 56.847 137.38 56.5411C137.072 56.1969 136.918 55.6614 136.918 54.9348V34.7415L133.51 40.9945C133.163 41.6447 132.739 42.1227 132.239 42.4287C131.777 42.6964 131.18 42.8303 130.448 42.8303H128.137C127.405 42.8303 126.789 42.6964 126.289 42.4287C125.826 42.1227 125.422 41.6447 125.075 40.9945L121.667 34.7415V54.9348C121.667 55.6614 121.494 56.1969 121.147 56.5411C120.839 56.847 120.319 57 119.587 57Z" fill="url(#paint3_linear_74_132)"/>
<path d="M183.92 57H157.116C156.384 57 155.845 56.847 155.498 56.5411C155.19 56.1969 155.036 55.6614 155.036 54.9348V17.7607C155.036 17.0341 155.19 16.5178 155.498 16.2118C155.845 15.8676 156.384 15.6955 157.116 15.6955H183.92C184.652 15.6955 185.172 15.8676 185.48 16.2118C185.827 16.5178 186 17.0341 186 17.7607V24.4727C186 25.1994 185.827 25.7348 185.48 26.079C185.172 26.3849 184.652 26.5379 183.92 26.5379H167.976V30.9552H179.241C179.973 30.9552 180.493 31.1273 180.801 31.4715C181.147 31.7775 181.321 32.2938 181.321 33.0204V39.1587C181.321 39.8854 181.147 40.4208 180.801 40.765C180.493 41.071 179.973 41.224 179.241 41.224H167.976V46.1576H183.92C184.652 46.1576 185.172 46.3297 185.48 46.6739C185.827 46.9798 186 47.4961 186 48.2228V54.9348C186 55.6614 185.827 56.1969 185.48 56.5411C185.172 56.847 184.652 57 183.92 57Z" fill="url(#paint4_linear_74_132)"/>
<path d="M6.21062 12.7507H0.635177C0.411689 12.7507 0.247013 12.7044 0.14115 12.6119C0.0470501 12.5078 0 12.3459 0 12.1262V10.0965C0 9.87672 0.0470501 9.72059 0.14115 9.62807C0.247013 9.52398 0.411689 9.47194 0.635177 9.47194H5.38136C5.53427 9.47194 5.64602 9.42568 5.71659 9.33315C5.79893 9.22907 5.8401 9.10763 5.8401 8.96885C5.8401 8.77224 5.79893 8.62768 5.71659 8.53515C5.64602 8.44263 5.53427 8.39059 5.38136 8.37902L2.73479 8.01472C1.91141 7.89906 1.24683 7.63306 0.74104 7.21671C0.247013 6.80037 0 6.10645 0 5.13497V3.31344C0 2.3304 0.32347 1.57866 0.970409 1.05822C1.61735 0.526219 2.5113 0.260218 3.65227 0.260218H8.59253C8.81602 0.260218 8.97481 0.312261 9.06891 0.416349C9.17478 0.508871 9.22771 0.665002 9.22771 0.884741V2.94914C9.22771 3.16888 9.17478 3.33079 9.06891 3.43488C8.97481 3.5274 8.81602 3.57366 8.59253 3.57366H4.48153C4.32861 3.57366 4.21099 3.6257 4.12865 3.72979C4.04631 3.82231 4.00514 3.94375 4.00514 4.0941C4.00514 4.24445 4.04631 4.37166 4.12865 4.47575C4.21099 4.57984 4.32861 4.63766 4.48153 4.64923L7.11045 4.99619C7.93383 5.11184 8.59841 5.37784 9.1042 5.79419C9.60999 6.21054 9.86289 6.90445 9.86289 7.87593V9.69746C9.86289 10.6805 9.53353 11.438 8.87483 11.97C8.22789 12.4905 7.33982 12.7507 6.21062 12.7507Z" fill="url(#paint5_linear_74_132)"/>
<path d="M16.7374 12.7507H13.8791C13.6556 12.7507 13.4909 12.7044 13.385 12.6119C13.2909 12.5078 13.2439 12.3459 13.2439 12.1262V3.60836H10.6502C10.4268 3.60836 10.2621 3.5621 10.1562 3.46957C10.0621 3.36549 10.0151 3.20357 10.0151 2.98383V0.884741C10.0151 0.665002 10.0621 0.508871 10.1562 0.416349C10.2621 0.312261 10.4268 0.260218 10.6502 0.260218H19.9662C20.1897 0.260218 20.3484 0.312261 20.4426 0.416349C20.5484 0.508871 20.6013 0.665002 20.6013 0.884741V2.98383C20.6013 3.20357 20.5484 3.36549 20.4426 3.46957C20.3484 3.5621 20.1897 3.60836 19.9662 3.60836H17.3725V12.1262C17.3725 12.3459 17.3196 12.5078 17.2137 12.6119C17.1196 12.7044 16.9608 12.7507 16.7374 12.7507Z" fill="url(#paint6_linear_74_132)"/>
<path d="M32.2507 9.47194C32.2507 10.0039 32.1683 10.4897 32.0037 10.9292C31.8507 11.3571 31.5684 11.7272 31.1568 12.0394C30.7568 12.3401 30.204 12.5772 29.4982 12.7507C28.7925 12.9242 27.8926 13.0109 26.7987 13.0109C25.7048 13.0109 24.805 12.9242 24.0992 12.7507C23.3935 12.5772 22.8348 12.3401 22.4231 12.0394C22.0231 11.7272 21.7408 11.3571 21.5762 10.9292C21.4233 10.4897 21.3468 10.0039 21.3468 9.47194V0.884741C21.3468 0.665002 21.3938 0.508871 21.4879 0.416349C21.5938 0.312261 21.7585 0.260218 21.982 0.260218H24.752C24.9755 0.260218 25.1343 0.312261 25.2284 0.416349C25.3343 0.508871 25.3872 0.665002 25.3872 0.884741V8.79537C25.3872 9.02668 25.4754 9.22329 25.6519 9.3852C25.8283 9.53555 26.2224 9.61072 26.834 9.61072C27.4574 9.61072 27.8574 9.53555 28.0338 9.3852C28.2102 9.22329 28.2985 9.02668 28.2985 8.79537V0.884741C28.2985 0.665002 28.3455 0.508871 28.4396 0.416349C28.5455 0.312261 28.7101 0.260218 28.9336 0.260218H31.6155C31.839 0.260218 31.9978 0.312261 32.0919 0.416349C32.1977 0.508871 32.2507 0.665002 32.2507 0.884741V9.47194Z" fill="url(#paint7_linear_74_132)"/>
<path d="M40.2979 12.7507H34.3519C34.1284 12.7507 33.9638 12.7044 33.8579 12.6119C33.7638 12.5078 33.7168 12.3459 33.7168 12.1262V0.884741C33.7168 0.665002 33.7638 0.508871 33.8579 0.416349C33.9638 0.312261 34.1284 0.260218 34.3519 0.260218H40.2979C41.7682 0.260218 42.8562 0.549349 43.562 1.12761C44.2795 1.70587 44.6383 2.5964 44.6383 3.79918V9.21172C44.6383 10.4145 44.2795 11.305 43.562 11.8833C42.8562 12.4616 41.7682 12.7507 40.2979 12.7507ZM37.7219 3.57366V9.47194H39.8215C40.1038 9.47194 40.3097 9.40255 40.439 9.26376C40.5802 9.12498 40.6508 8.91102 40.6508 8.62189V4.40636C40.6508 4.11723 40.5802 3.90905 40.439 3.78184C40.3097 3.64305 40.1038 3.57366 39.8215 3.57366H37.7219Z" fill="url(#paint8_linear_74_132)"/>
<path d="M46.3514 12.7507C46.1279 12.7507 45.9632 12.7044 45.8573 12.6119C45.7632 12.5078 45.7162 12.3459 45.7162 12.1262V10.0618C45.7162 9.84203 45.7632 9.6859 45.8573 9.59337C45.9632 9.48929 46.1279 9.43724 46.3514 9.43724H48.0981V3.60836H46.3514C46.1279 3.60836 45.9632 3.5621 45.8573 3.46957C45.7632 3.36549 45.7162 3.20357 45.7162 2.98383V0.884741C45.7162 0.665002 45.7632 0.508871 45.8573 0.416349C45.9632 0.312261 46.1279 0.260218 46.3514 0.260218H53.8676C54.0911 0.260218 54.2499 0.312261 54.344 0.416349C54.4499 0.508871 54.5028 0.665002 54.5028 0.884741V2.98383C54.5028 3.20357 54.4499 3.36549 54.344 3.46957C54.2499 3.5621 54.0911 3.60836 53.8676 3.60836H52.1562V9.43724H53.8676C54.0911 9.43724 54.2499 9.48929 54.344 9.59337C54.4499 9.6859 54.5028 9.84203 54.5028 10.0618V12.1262C54.5028 12.3459 54.4499 12.5078 54.344 12.6119C54.2499 12.7044 54.0911 12.7507 53.8676 12.7507H46.3514Z" fill="url(#paint9_linear_74_132)"/>
<path d="M66.5618 9.47194C66.5618 10.0039 66.4795 10.4897 66.3148 10.9292C66.1619 11.3571 65.8796 11.7272 65.4679 12.0394C65.0679 12.3401 64.5092 12.5772 63.7917 12.7507C63.086 12.9242 62.1861 13.0109 61.0922 13.0109C59.9983 13.0109 59.0926 12.9242 58.3751 12.7507C57.6576 12.5772 57.093 12.3401 56.6813 12.0394C56.2813 11.7272 55.999 11.3571 55.8344 10.9292C55.6815 10.4897 55.605 10.0039 55.605 9.47194V3.55631C55.605 3.02431 55.6815 2.54435 55.8344 2.11644C55.999 1.67696 56.2813 1.30109 56.6813 0.988828C57.093 0.676567 57.6576 0.433696 58.3751 0.260218C59.0926 0.0867393 59.9983 0 61.0922 0C62.1861 0 63.086 0.0867393 63.7917 0.260218C64.5092 0.433696 65.0679 0.676567 65.4679 0.988828C65.8796 1.30109 66.1619 1.67696 66.3148 2.11644C66.4795 2.54435 66.5618 3.02431 66.5618 3.55631V9.47194ZM59.6101 8.84742C59.6101 9.07872 59.6984 9.27533 59.8748 9.43724C60.0512 9.58759 60.457 9.66276 61.0922 9.66276C61.7274 9.66276 62.1332 9.58759 62.3096 9.43724C62.4861 9.27533 62.5743 9.07872 62.5743 8.84742V4.18084C62.5743 3.9611 62.4861 3.77605 62.3096 3.62571C62.1332 3.46379 61.7274 3.38283 61.0922 3.38283C60.457 3.38283 60.0512 3.46379 59.8748 3.62571C59.6984 3.77605 59.6101 3.9611 59.6101 4.18084V8.84742Z" fill="url(#paint10_linear_74_132)"/>
<defs>
<linearGradient id="paint0_linear_74_132" x1="221.199" y1="10.3277" x2="112.247" y2="158.177" gradientUnits="userSpaceOnUse">
<stop stop-color="#B318EA"/>
<stop offset="0.788542" stop-color="#1AAD9C"/>
</linearGradient>
<linearGradient id="paint1_linear_74_132" x1="221.199" y1="10.3277" x2="112.247" y2="158.177" gradientUnits="userSpaceOnUse">
<stop stop-color="#B318EA"/>
<stop offset="0.788542" stop-color="#1AAD9C"/>
</linearGradient>
<linearGradient id="paint2_linear_74_132" x1="221.199" y1="10.3277" x2="112.247" y2="158.177" gradientUnits="userSpaceOnUse">
<stop stop-color="#B318EA"/>
<stop offset="0.788542" stop-color="#1AAD9C"/>
</linearGradient>
<linearGradient id="paint3_linear_74_132" x1="221.199" y1="10.3277" x2="112.247" y2="158.177" gradientUnits="userSpaceOnUse">
<stop stop-color="#B318EA"/>
<stop offset="0.788542" stop-color="#1AAD9C"/>
</linearGradient>
<linearGradient id="paint4_linear_74_132" x1="221.199" y1="10.3277" x2="112.247" y2="158.177" gradientUnits="userSpaceOnUse">
<stop stop-color="#B318EA"/>
<stop offset="0.788542" stop-color="#1AAD9C"/>
</linearGradient>
<linearGradient id="paint5_linear_74_132" x1="149" y1="1.52732e-06" x2="82.4509" y2="84.6835" gradientUnits="userSpaceOnUse">
<stop stop-color="#B318EA"/>
<stop offset="0.788542" stop-color="#1AAD9C"/>
</linearGradient>
<linearGradient id="paint6_linear_74_132" x1="149" y1="1.52732e-06" x2="82.4509" y2="84.6835" gradientUnits="userSpaceOnUse">
<stop stop-color="#B318EA"/>
<stop offset="0.788542" stop-color="#1AAD9C"/>
</linearGradient>
<linearGradient id="paint7_linear_74_132" x1="149" y1="1.52732e-06" x2="82.4509" y2="84.6835" gradientUnits="userSpaceOnUse">
<stop stop-color="#B318EA"/>
<stop offset="0.788542" stop-color="#1AAD9C"/>
</linearGradient>
<linearGradient id="paint8_linear_74_132" x1="149" y1="1.52732e-06" x2="82.4509" y2="84.6835" gradientUnits="userSpaceOnUse">
<stop stop-color="#B318EA"/>
<stop offset="0.788542" stop-color="#1AAD9C"/>
</linearGradient>
<linearGradient id="paint9_linear_74_132" x1="149" y1="1.52732e-06" x2="82.4509" y2="84.6835" gradientUnits="userSpaceOnUse">
<stop stop-color="#B318EA"/>
<stop offset="0.788542" stop-color="#1AAD9C"/>
</linearGradient>
<linearGradient id="paint10_linear_74_132" x1="149" y1="1.52732e-06" x2="82.4509" y2="84.6835" gradientUnits="userSpaceOnUse">
<stop stop-color="#B318EA"/>
<stop offset="0.788542" stop-color="#1AAD9C"/>
</linearGradient>
</defs>
</svg>
