<svg width="400" height="173" viewBox="0 0 400 173" fill="none" xmlns="http://www.w3.org/2000/svg">
<path d="M24.3296 123H5.07342C3.49979 123 2.34028 122.67 1.59488 122.01C0.932302 121.267 0.601013 120.111 0.601013 118.543V38.3257C0.601013 36.7576 0.932302 35.6435 1.59488 34.9833C2.34028 34.2405 3.49979 33.8691 5.07342 33.8691H43.0889C54.3527 33.8691 62.0552 36.0974 66.1963 40.554C70.3374 45.0105 72.408 50.8287 72.408 58.0087V73.8542C72.408 81.0342 70.3374 86.8524 66.1963 91.309C62.0552 95.7655 54.3527 97.9938 43.0889 97.9938H28.802V118.543C28.802 120.111 28.4293 121.267 27.6839 122.01C27.0213 122.67 25.9032 123 24.3296 123ZM28.5535 57.0184V75.7111H39.7346C42.1364 75.7111 43.71 75.0921 44.4554 73.8542C45.2008 72.6163 45.5735 71.2133 45.5735 69.6452V63.0842C45.5735 61.5162 45.2008 60.1132 44.4554 58.8753C43.71 57.6373 42.1364 57.0184 39.7346 57.0184H28.5535Z" fill="#1D2A5A"/>
<path d="M107.149 56.1518V71.9973H116.466C118.62 71.9973 120.069 71.4609 120.814 70.388C121.56 69.2326 121.932 67.8296 121.932 66.179V61.9701C121.932 60.3195 121.56 58.9578 120.814 57.8849C120.069 56.7295 118.62 56.1518 116.466 56.1518H107.149ZM102.676 123H83.5443C81.9707 123 80.8112 122.67 80.0658 122.01C79.4032 121.267 79.0719 120.111 79.0719 118.543V38.3257C79.0719 36.7576 79.4032 35.6435 80.0658 34.9833C80.8112 34.2405 81.9707 33.8691 83.5443 33.8691H124.914C134.19 33.8691 140.567 35.8086 144.046 39.6874C147.607 43.4837 149.388 48.4354 149.388 54.5425V60.237C149.388 63.7032 148.85 66.6742 147.773 69.1501C146.779 71.5434 144.998 73.2765 142.431 74.3494C146.903 74.8445 150.506 76.6602 153.239 79.7962C156.055 82.9323 157.463 87.1 157.463 92.2993V118.543C157.463 120.111 157.091 121.267 156.345 122.01C155.683 122.67 154.564 123 152.991 123H133.735C132.161 123 131.002 122.67 130.256 122.01C129.594 121.267 129.262 120.111 129.262 118.543V99.6031C129.262 97.7875 128.89 96.467 128.144 95.6417C127.482 94.7339 126.281 94.28 124.541 94.28H107.149V118.543C107.149 120.111 106.776 121.267 106.031 122.01C105.368 122.67 104.25 123 102.676 123Z" fill="#1D2A5A"/>
<path d="M167.671 123C166.097 123 164.938 122.67 164.192 122.01C163.53 121.267 163.198 120.111 163.198 118.543V103.812C163.198 102.244 163.53 101.13 164.192 100.47C164.938 99.7269 166.097 99.3555 167.671 99.3555H179.97V57.7611H167.671C166.097 57.7611 164.938 57.431 164.192 56.7708C163.53 56.028 163.198 54.8726 163.198 53.3046V38.3257C163.198 36.7576 163.53 35.6435 164.192 34.9833C164.938 34.2405 166.097 33.8691 167.671 33.8691H220.594C222.168 33.8691 223.286 34.2405 223.949 34.9833C224.694 35.6435 225.067 36.7576 225.067 38.3257V53.3046C225.067 54.8726 224.694 56.028 223.949 56.7708C223.286 57.431 222.168 57.7611 220.594 57.7611H208.544V99.3555H220.594C222.168 99.3555 223.286 99.7269 223.949 100.47C224.694 101.13 225.067 102.244 225.067 103.812V118.543C225.067 120.111 224.694 121.267 223.949 122.01C223.286 122.67 222.168 123 220.594 123H167.671Z" fill="#1D2A5A"/>
<path d="M257.177 123H238.666C237.093 123 235.933 122.67 235.188 122.01C234.525 121.267 234.194 120.111 234.194 118.543V38.3257C234.194 36.7576 234.525 35.6435 235.188 34.9833C235.933 34.2405 237.093 33.8691 238.666 33.8691H258.668C259.993 33.8691 261.07 34.158 261.898 34.7357C262.809 35.3134 263.637 36.2625 264.383 37.5829L275.564 57.7611C275.978 58.5039 276.309 59.0403 276.558 59.3704C276.889 59.7006 277.303 59.8656 277.8 59.8656H278.918C279.415 59.8656 279.788 59.7006 280.036 59.3704C280.367 59.0403 280.74 58.5039 281.154 57.7611L292.211 37.5829C292.956 36.2625 293.743 35.3134 294.571 34.7357C295.482 34.158 296.601 33.8691 297.926 33.8691H318.052C319.625 33.8691 320.743 34.2405 321.406 34.9833C322.151 35.6435 322.524 36.7576 322.524 38.3257V118.543C322.524 120.111 322.151 121.267 321.406 122.01C320.743 122.67 319.625 123 318.052 123H298.92C297.346 123 296.186 122.67 295.441 122.01C294.778 121.267 294.447 120.111 294.447 118.543V74.9683L287.117 88.4617C286.372 89.8647 285.461 90.8963 284.384 91.5566C283.39 92.1343 282.107 92.4231 280.533 92.4231H275.564C273.99 92.4231 272.665 92.1343 271.588 91.5566C270.594 90.8963 269.725 89.8647 268.979 88.4617L261.65 74.9683V118.543C261.65 120.111 261.277 121.267 260.531 122.01C259.869 122.67 258.751 123 257.177 123Z" fill="#1D2A5A"/>
<path d="M395.528 123H337.883C336.31 123 335.15 122.67 334.405 122.01C333.742 121.267 333.411 120.111 333.411 118.543V38.3257C333.411 36.7576 333.742 35.6435 334.405 34.9833C335.15 34.2405 336.31 33.8691 337.883 33.8691H395.528C397.101 33.8691 398.219 34.2405 398.882 34.9833C399.627 35.6435 400 36.7576 400 38.3257V52.8094C400 54.3775 399.627 55.5329 398.882 56.2756C398.219 56.9359 397.101 57.266 395.528 57.266H361.239V66.798H385.465C387.038 66.798 388.156 67.1694 388.819 67.9121C389.564 68.5724 389.937 69.6865 389.937 71.2545V84.5004C389.937 86.0684 389.564 87.2238 388.819 87.9666C388.156 88.6268 387.038 88.9569 385.465 88.9569H361.239V99.6031H395.528C397.101 99.6031 398.219 99.9745 398.882 100.717C399.627 101.377 400 102.492 400 104.06V118.543C400 120.111 399.627 121.267 398.882 122.01C398.219 122.67 397.101 123 395.528 123Z" fill="#1D2A5A"/>
<path d="M13.3562 27.5146H1.36597C0.885352 27.5146 0.531211 27.4148 0.303549 27.2152C0.101183 26.9906 0 26.6412 0 26.167V21.7871C0 21.3129 0.101183 20.976 0.303549 20.7764C0.531211 20.5517 0.885352 20.4394 1.36597 20.4394H11.5728C11.9017 20.4394 12.142 20.3396 12.2937 20.14C12.4708 19.9154 12.5594 19.6533 12.5594 19.3538C12.5594 18.9296 12.4708 18.6176 12.2937 18.418C12.142 18.2183 11.9017 18.106 11.5728 18.081L5.88127 17.2949C4.11056 17.0453 2.68135 16.4713 1.59363 15.5729C0.531211 14.6745 0 13.1771 0 11.0807V7.15006C0 5.02875 0.695634 3.40657 2.0869 2.28353C3.47817 1.13552 5.40065 0.561523 7.85434 0.561523H18.4786C18.9592 0.561523 19.3007 0.673827 19.503 0.898437C19.7307 1.09809 19.8445 1.435 19.8445 1.90918V6.36393C19.8445 6.83811 19.7307 7.1875 19.503 7.41211C19.3007 7.61176 18.9592 7.71158 18.4786 7.71158H9.63769C9.30885 7.71158 9.05589 7.82389 8.87882 8.0485C8.70175 8.24815 8.61321 8.5102 8.61321 8.83463C8.61321 9.15907 8.70175 9.43359 8.87882 9.6582C9.05589 9.88281 9.30885 10.0076 9.63769 10.0325L15.2913 10.7812C17.062 11.0308 18.4912 11.6048 19.5789 12.5032C20.6666 13.4017 21.2105 14.8991 21.2105 16.9954V20.9261C21.2105 23.0474 20.5022 24.6821 19.0857 25.8301C17.6944 26.9531 15.7846 27.5146 13.3562 27.5146Z" fill="#1D2A5A"/>
<path d="M35.9943 27.5146H29.8474C29.3668 27.5146 29.0127 27.4148 28.785 27.2152C28.5826 26.9906 28.4815 26.6412 28.4815 26.167V7.78646H22.9037C22.4231 7.78646 22.069 7.68663 21.8413 7.48698C21.639 7.26237 21.5378 6.91297 21.5378 6.4388V1.90918C21.5378 1.435 21.639 1.09809 21.8413 0.898437C22.069 0.673827 22.4231 0.561523 22.9037 0.561523H42.938C43.4186 0.561523 43.7601 0.673827 43.9625 0.898437C44.1901 1.09809 44.304 1.435 44.304 1.90918V6.4388C44.304 6.91297 44.1901 7.26237 43.9625 7.48698C43.7601 7.68663 43.4186 7.78646 42.938 7.78646H37.3603V26.167C37.3603 26.6412 37.2464 26.9906 37.0188 27.2152C36.8164 27.4148 36.4749 27.5146 35.9943 27.5146Z" fill="#1D2A5A"/>
<path d="M69.3563 20.4394C69.3563 21.5874 69.1792 22.6356 68.8251 23.584C68.4962 24.5074 67.8891 25.306 67.0038 25.9798C66.1437 26.6287 64.9548 27.1403 63.4371 27.5146C61.9193 27.889 59.9842 28.0762 57.6317 28.0762C55.2792 28.0762 53.3441 27.889 51.8263 27.5146C50.3086 27.1403 49.107 26.6287 48.2217 25.9798C47.3616 25.306 46.7545 24.5074 46.4004 23.584C46.0715 22.6356 45.9071 21.5874 45.9071 20.4394V1.90918C45.9071 1.435 46.0083 1.09809 46.2106 0.898437C46.4383 0.673827 46.7924 0.561523 47.2731 0.561523H53.2302C53.7108 0.561523 54.0523 0.673827 54.2547 0.898437C54.4824 1.09809 54.5962 1.435 54.5962 1.90918V18.9795C54.5962 19.4786 54.7859 19.9029 55.1653 20.2523C55.5448 20.5767 56.3922 20.7389 57.7076 20.7389C59.0482 20.7389 59.9083 20.5767 60.2877 20.2523C60.6672 19.9029 60.8569 19.4786 60.8569 18.9795V1.90918C60.8569 1.435 60.9581 1.09809 61.1604 0.898437C61.3881 0.673827 61.7422 0.561523 62.2229 0.561523H67.9903C68.4709 0.561523 68.8124 0.673827 69.0148 0.898437C69.2424 1.09809 69.3563 1.435 69.3563 1.90918V20.4394Z" fill="#1D2A5A"/>
<path d="M86.6621 27.5146H73.8751C73.3945 27.5146 73.0404 27.4148 72.8127 27.2152C72.6103 26.9906 72.5092 26.6412 72.5092 26.167V1.90918C72.5092 1.435 72.6103 1.09809 72.8127 0.898437C73.0404 0.673827 73.3945 0.561523 73.8751 0.561523H86.6621C89.8241 0.561523 92.164 1.18544 93.6817 2.43327C95.2248 3.6811 95.9963 5.60275 95.9963 8.19824V19.8779C95.9963 22.4734 95.2248 24.3951 93.6817 25.6429C92.164 26.8907 89.8241 27.5146 86.6621 27.5146ZM81.1224 7.71158V20.4394H85.6377C86.2448 20.4394 86.6874 20.2897 86.9657 19.9902C87.2692 19.6907 87.421 19.229 87.421 18.6051V9.50846C87.421 8.88454 87.2692 8.43533 86.9657 8.1608C86.6874 7.86132 86.2448 7.71158 85.6377 7.71158H81.1224Z" fill="#1D2A5A"/>
<path d="M99.6804 27.5146C99.1998 27.5146 98.8456 27.4148 98.618 27.2152C98.4156 26.9906 98.3144 26.6412 98.3144 26.167V21.7122C98.3144 21.2381 98.4156 20.9011 98.618 20.7015C98.8456 20.4769 99.1998 20.3646 99.6804 20.3646H103.437V7.78646H99.6804C99.1998 7.78646 98.8456 7.68663 98.618 7.48698C98.4156 7.26237 98.3144 6.91297 98.3144 6.4388V1.90918C98.3144 1.435 98.4156 1.09809 98.618 0.898437C98.8456 0.673827 99.1998 0.561523 99.6804 0.561523H115.844C116.325 0.561523 116.666 0.673827 116.869 0.898437C117.097 1.09809 117.21 1.435 117.21 1.90918V6.4388C117.21 6.91297 117.097 7.26237 116.869 7.48698C116.666 7.68663 116.325 7.78646 115.844 7.78646H112.164V20.3646H115.844C116.325 20.3646 116.666 20.4769 116.869 20.7015C117.097 20.9011 117.21 21.2381 117.21 21.7122V26.167C117.21 26.6412 117.097 26.9906 116.869 27.2152C116.666 27.4148 116.325 27.5146 115.844 27.5146H99.6804Z" fill="#1D2A5A"/>
<path d="M143.144 20.4394C143.144 21.5874 142.967 22.6356 142.612 23.584C142.284 24.5074 141.676 25.306 140.791 25.9798C139.931 26.6287 138.73 27.1403 137.187 27.5146C135.669 27.889 133.734 28.0762 131.381 28.0762C129.029 28.0762 127.081 27.889 125.538 27.5146C123.995 27.1403 122.781 26.6287 121.895 25.9798C121.035 25.306 120.428 24.5074 120.074 23.584C119.745 22.6356 119.581 21.5874 119.581 20.4394V7.67415C119.581 6.52615 119.745 5.49045 120.074 4.56705C120.428 3.6187 121.035 2.80762 121.895 2.13379C122.781 1.45996 123.995 0.935871 125.538 0.561523C127.081 0.187174 129.029 0 131.381 0C133.734 0 135.669 0.187174 137.187 0.561523C138.73 0.935871 139.931 1.45996 140.791 2.13379C141.676 2.80762 142.284 3.6187 142.612 4.56705C142.967 5.49045 143.144 6.52615 143.144 7.67415V20.4394ZM128.194 19.0918C128.194 19.5909 128.384 20.0152 128.763 20.3646C129.142 20.689 130.015 20.8512 131.381 20.8512C132.747 20.8512 133.62 20.689 133.999 20.3646C134.379 20.0152 134.568 19.5909 134.568 19.0918V9.02181C134.568 8.54763 134.379 8.14833 133.999 7.82389C133.62 7.4745 132.747 7.2998 131.381 7.2998C130.015 7.2998 129.142 7.4745 128.763 7.82389C128.384 8.14833 128.194 8.54763 128.194 9.02181V19.0918Z" fill="#1D2A5A"/>
<path d="M17.7933 172.286H1.81977C1.17948 172.286 0.707688 172.159 0.404393 171.905C0.134798 171.619 0 171.175 0 170.571V165C0 164.397 0.134798 163.968 0.404393 163.714C0.707688 163.429 1.17948 163.286 1.81977 163.286H15.4175C15.8556 163.286 16.1757 163.159 16.3779 162.905C16.6138 162.619 16.7318 162.286 16.7318 161.905C16.7318 161.365 16.6138 160.968 16.3779 160.714C16.1757 160.46 15.8556 160.317 15.4175 160.286L7.83512 159.286C5.47616 158.968 3.57214 158.238 2.12306 157.095C0.707688 155.952 0 154.048 0 151.381V146.381C0 143.683 0.926735 141.619 2.7802 140.19C4.63367 138.73 7.19483 138 10.4637 138H24.6174C25.2577 138 25.7127 138.143 25.9823 138.429C26.2856 138.683 26.4372 139.111 26.4372 139.714V145.381C26.4372 145.984 26.2856 146.429 25.9823 146.714C25.7127 146.968 25.2577 147.095 24.6174 147.095H12.8395C12.4014 147.095 12.0644 147.238 11.8285 147.524C11.5926 147.778 11.4747 148.111 11.4747 148.524C11.4747 148.937 11.5926 149.286 11.8285 149.571C12.0644 149.857 12.4014 150.016 12.8395 150.048L20.3713 151C22.7303 151.317 24.6343 152.048 26.0834 153.19C27.5324 154.333 28.257 156.238 28.257 158.905V163.905C28.257 166.603 27.3134 168.683 25.4262 170.143C23.5728 171.571 21.0284 172.286 17.7933 172.286Z" fill="#1D2A5A"/>
<path d="M50.4796 172.286H42.2907C41.6504 172.286 41.1786 172.159 40.8753 171.905C40.6057 171.619 40.4709 171.175 40.4709 170.571V147.19H33.0402C32.3999 147.19 31.9281 147.063 31.6248 146.81C31.3552 146.524 31.2204 146.079 31.2204 145.476V139.714C31.2204 139.111 31.3552 138.683 31.6248 138.429C31.9281 138.143 32.3999 138 33.0402 138H59.7301C60.3704 138 60.8254 138.143 61.095 138.429C61.3983 138.683 61.5499 139.111 61.5499 139.714V145.476C61.5499 146.079 61.3983 146.524 61.095 146.81C60.8254 147.063 60.3704 147.19 59.7301 147.19H52.2994V170.571C52.2994 171.175 52.1478 171.619 51.8445 171.905C51.5749 172.159 51.1199 172.286 50.4796 172.286Z" fill="#1D2A5A"/>
<path d="M84.9163 172.286H76.7273C76.087 172.286 75.6152 172.159 75.3119 171.905C75.0423 171.619 74.9075 171.175 74.9075 170.571V164.476L67.1735 154.714C66.3984 153.73 65.8761 152.873 65.6065 152.143C65.3706 151.413 65.2526 150.317 65.2526 148.857V139.714C65.2526 139.111 65.3874 138.683 65.657 138.429C65.9603 138.143 66.4321 138 67.0724 138H74.857C75.4973 138 75.9522 138.143 76.2218 138.429C76.5251 138.683 76.6768 139.111 76.6768 139.714V147.524C76.6768 147.841 76.6936 148.175 76.7273 148.524C76.761 148.873 76.8958 149.206 77.1317 149.524L79.457 152.952C79.6255 153.238 79.7939 153.444 79.9624 153.571C80.1646 153.698 80.4005 153.762 80.6701 153.762H81.1756C81.4452 153.762 81.6643 153.698 81.8328 153.571C82.035 153.444 82.2203 153.238 82.3888 152.952L84.7141 149.524C84.95 149.206 85.0848 148.873 85.1185 148.524C85.1522 148.175 85.169 147.841 85.169 147.524V139.714C85.169 139.111 85.3038 138.683 85.5734 138.429C85.8767 138.143 86.3485 138 86.9888 138H94.5206C95.1609 138 95.6158 138.143 95.8854 138.429C96.1887 138.683 96.3404 139.111 96.3404 139.714V148.857C96.3404 150.317 96.2056 151.413 95.936 152.143C95.6664 152.873 95.1609 153.73 94.4195 154.714L86.736 164.524V170.571C86.736 171.175 86.5844 171.619 86.2811 171.905C86.0115 172.159 85.5565 172.286 84.9163 172.286Z" fill="#1D2A5A"/>
<path d="M129.656 172.286H103.927C103.286 172.286 102.815 172.159 102.511 171.905C102.242 171.619 102.107 171.175 102.107 170.571V139.714C102.107 139.111 102.242 138.683 102.511 138.429C102.815 138.143 103.286 138 103.927 138H111.762C112.402 138 112.857 138.143 113.127 138.429C113.43 138.683 113.582 139.111 113.582 139.714V163.286H120.507V155.571C120.507 154.968 120.642 154.54 120.911 154.286C121.215 154 121.686 153.857 122.327 153.857H129.656C130.296 153.857 130.751 154 131.021 154.286C131.324 154.54 131.476 154.968 131.476 155.571V170.571C131.476 171.175 131.324 171.619 131.021 171.905C130.751 172.159 130.296 172.286 129.656 172.286Z" fill="#1D2A5A"/>
<path d="M162.529 172.286H139.074C138.434 172.286 137.962 172.159 137.659 171.905C137.389 171.619 137.254 171.175 137.254 170.571V139.714C137.254 139.111 137.389 138.683 137.659 138.429C137.962 138.143 138.434 138 139.074 138H162.529C163.169 138 163.624 138.143 163.894 138.429C164.197 138.683 164.349 139.111 164.349 139.714V145.286C164.349 145.889 164.197 146.333 163.894 146.619C163.624 146.873 163.169 147 162.529 147H148.577V150.667H158.434C159.075 150.667 159.53 150.81 159.799 151.095C160.103 151.349 160.254 151.778 160.254 152.381V157.476C160.254 158.079 160.103 158.524 159.799 158.81C159.53 159.063 159.075 159.19 158.434 159.19H148.577V163.286H162.529C163.169 163.286 163.624 163.429 163.894 163.714C164.197 163.968 164.349 164.397 164.349 165V170.571C164.349 171.175 164.197 171.619 163.894 171.905C163.624 172.159 163.169 172.286 162.529 172.286Z" fill="#1D2A5A"/>
<path d="M197.884 172.286H181.961C177.748 172.286 174.614 171.492 172.559 169.905C170.537 168.317 169.526 165.873 169.526 162.571V147.714C169.526 144.413 170.537 141.968 172.559 140.381C174.614 138.794 177.748 138 181.961 138H194.598C195.238 138 195.693 138.143 195.963 138.429C196.266 138.683 196.418 139.111 196.418 139.714V145.476C196.418 146.079 196.266 146.524 195.963 146.81C195.693 147.063 195.238 147.19 194.598 147.19H184.084C183.039 147.19 182.264 147.397 181.759 147.81C181.253 148.19 181 148.778 181 149.571V160.952C181 161.746 181.186 162.333 181.556 162.714C181.961 163.095 182.551 163.286 183.326 163.286H188.229V155.857C188.229 155.254 188.364 154.825 188.633 154.571C188.937 154.286 189.408 154.143 190.049 154.143H197.884C198.524 154.143 198.979 154.286 199.249 154.571C199.552 154.825 199.704 155.254 199.704 155.857V170.571C199.704 171.175 199.552 171.619 199.249 171.905C198.979 172.159 198.524 172.286 197.884 172.286Z" fill="#1D2A5A"/>
<path d="M236.858 163.286C236.858 164.746 236.622 166.079 236.15 167.286C235.712 168.46 234.903 169.476 233.724 170.333C232.578 171.159 230.994 171.81 228.972 172.286C226.95 172.762 224.372 173 221.238 173C218.104 173 215.526 172.762 213.504 172.286C211.482 171.81 209.881 171.159 208.702 170.333C207.556 169.476 206.747 168.46 206.275 167.286C205.837 166.079 205.618 164.746 205.618 163.286V139.714C205.618 139.111 205.753 138.683 206.023 138.429C206.326 138.143 206.798 138 207.438 138H215.374C216.014 138 216.469 138.143 216.739 138.429C217.042 138.683 217.194 139.111 217.194 139.714V161.429C217.194 162.063 217.447 162.603 217.952 163.048C218.458 163.46 219.587 163.667 221.339 163.667C223.125 163.667 224.271 163.46 224.776 163.048C225.282 162.603 225.535 162.063 225.535 161.429V139.714C225.535 139.111 225.669 138.683 225.939 138.429C226.242 138.143 226.714 138 227.354 138H235.038C235.678 138 236.133 138.143 236.403 138.429C236.706 138.683 236.858 139.111 236.858 139.714V163.286Z" fill="#1D2A5A"/>
<path d="M244.596 172.286C243.956 172.286 243.484 172.159 243.181 171.905C242.911 171.619 242.777 171.175 242.777 170.571V164.905C242.777 164.302 242.911 163.873 243.181 163.619C243.484 163.333 243.956 163.19 244.596 163.19H249.601V147.19H244.596C243.956 147.19 243.484 147.063 243.181 146.81C242.911 146.524 242.777 146.079 242.777 145.476V139.714C242.777 139.111 242.911 138.683 243.181 138.429C243.484 138.143 243.956 138 244.596 138H266.13C266.771 138 267.225 138.143 267.495 138.429C267.798 138.683 267.95 139.111 267.95 139.714V145.476C267.95 146.079 267.798 146.524 267.495 146.81C267.225 147.063 266.771 147.19 266.13 147.19H261.227V163.19H266.13C266.771 163.19 267.225 163.333 267.495 163.619C267.798 163.873 267.95 164.302 267.95 164.905V170.571C267.95 171.175 267.798 171.619 267.495 171.905C267.225 172.159 266.771 172.286 266.13 172.286H244.596Z" fill="#1D2A5A"/>
<path d="M293.046 172.286H276.011C275.371 172.286 274.899 172.159 274.596 171.905C274.326 171.619 274.191 171.175 274.191 170.571V139.714C274.191 139.111 274.326 138.683 274.596 138.429C274.899 138.143 275.371 138 276.011 138H293.046C297.259 138 300.376 138.794 302.398 140.381C304.453 141.968 305.481 144.413 305.481 147.714V162.571C305.481 165.873 304.453 168.317 302.398 169.905C300.376 171.492 297.259 172.286 293.046 172.286ZM285.666 147.095V163.286H291.681C292.49 163.286 293.08 163.095 293.45 162.714C293.855 162.333 294.057 161.746 294.057 160.952V149.381C294.057 148.587 293.855 148.016 293.45 147.667C293.08 147.286 292.49 147.095 291.681 147.095H285.666Z" fill="#1D2A5A"/>
<path d="M337.18 172.286H313.725C313.085 172.286 312.613 172.159 312.31 171.905C312.04 171.619 311.906 171.175 311.906 170.571V139.714C311.906 139.111 312.04 138.683 312.31 138.429C312.613 138.143 313.085 138 313.725 138H337.18C337.821 138 338.275 138.143 338.545 138.429C338.848 138.683 339 139.111 339 139.714V145.286C339 145.889 338.848 146.333 338.545 146.619C338.275 146.873 337.821 147 337.18 147H323.229V150.667H333.086C333.726 150.667 334.181 150.81 334.451 151.095C334.754 151.349 334.906 151.778 334.906 152.381V157.476C334.906 158.079 334.754 158.524 334.451 158.81C334.181 159.063 333.726 159.19 333.086 159.19H323.229V163.286H337.18C337.821 163.286 338.275 163.429 338.545 163.714C338.848 163.968 339 164.397 339 165V170.571C339 171.175 338.848 171.619 338.545 171.905C338.275 172.159 337.821 172.286 337.18 172.286Z" fill="#1D2A5A"/>
</svg>
