<svg width="276" height="86" viewBox="0 0 276 86" fill="none" xmlns="http://www.w3.org/2000/svg">
<path d="M16.7874 85.4238H3.50068C2.41488 85.4238 1.61481 85.1957 1.10049 84.7394C0.643308 84.2261 0.414719 83.4277 0.414719 82.3441V26.9091C0.414719 25.8255 0.643308 25.0555 1.10049 24.5993C1.61481 24.086 2.41488 23.8293 3.50068 23.8293H29.7313C37.5034 23.8293 42.8181 25.3692 45.6755 28.4489C48.5328 31.5286 49.9615 35.5494 49.9615 40.5112V51.4613C49.9615 56.4231 48.5328 60.4438 45.6755 63.5235C42.8181 66.6033 37.5034 68.1431 29.7313 68.1431H19.8734V82.3441C19.8734 83.4277 19.6162 84.2261 19.1019 84.7394C18.6447 85.1957 17.8732 85.4238 16.7874 85.4238ZM19.702 39.8268V52.7445H27.4169C29.0741 52.7445 30.1599 52.3168 30.6743 51.4613C31.1886 50.6058 31.4458 49.6363 31.4458 48.5527V44.0186C31.4458 42.935 31.1886 41.9655 30.6743 41.11C30.1599 40.2545 29.0741 39.8268 27.4169 39.8268H19.702Z" fill="white"/>
<path d="M73.9326 39.228V50.1781H80.3617C81.8475 50.1781 82.8476 49.8074 83.3619 49.066C83.8763 48.2675 84.1334 47.298 84.1334 46.1573V43.2487C84.1334 42.1081 83.8763 41.167 83.3619 40.4256C82.8476 39.6272 81.8475 39.228 80.3617 39.228H73.9326ZM70.8466 85.4238H57.6456C56.5598 85.4238 55.7597 85.1957 55.2454 84.7394C54.7882 84.2261 54.5596 83.4277 54.5596 82.3441V26.9091C54.5596 25.8255 54.7882 25.0555 55.2454 24.5993C55.7597 24.086 56.5598 23.8293 57.6456 23.8293H86.1907C92.5912 23.8293 96.9916 25.1696 99.3918 27.8501C101.849 30.4736 103.078 33.8955 103.078 38.1158V42.051C103.078 44.4464 102.706 46.4995 101.963 48.2105C101.278 49.8644 100.049 51.0621 98.2774 51.8035C101.363 52.1457 103.849 53.4004 105.735 55.5676C107.678 57.7348 108.65 60.6149 108.65 64.2079V82.3441C108.65 83.4277 108.392 84.2261 107.878 84.7394C107.421 85.1957 106.649 85.4238 105.564 85.4238H92.2769C91.1911 85.4238 90.3911 85.1957 89.8767 84.7394C89.4195 84.2261 89.191 83.4277 89.191 82.3441V69.2552C89.191 68.0005 88.9338 67.088 88.4195 66.5177C87.9623 65.8904 87.1337 65.5767 85.9336 65.5767H73.9326V82.3441C73.9326 83.4277 73.6754 84.2261 73.1611 84.7394C72.7039 85.1957 71.9324 85.4238 70.8466 85.4238Z" fill="white"/>
<path d="M115.693 85.4238C114.607 85.4238 113.807 85.1957 113.293 84.7394C112.835 84.2261 112.607 83.4277 112.607 82.3441V72.1639C112.607 71.0803 112.835 70.3103 113.293 69.8541C113.807 69.3408 114.607 69.0842 115.693 69.0842H124.179V40.3401H115.693C114.607 40.3401 113.807 40.1119 113.293 39.6557C112.835 39.1424 112.607 38.344 112.607 37.2604V26.9091C112.607 25.8255 112.835 25.0555 113.293 24.5993C113.807 24.086 114.607 23.8293 115.693 23.8293H152.21C153.296 23.8293 154.067 24.086 154.525 24.5993C155.039 25.0555 155.296 25.8255 155.296 26.9091V37.2604C155.296 38.344 155.039 39.1424 154.525 39.6557C154.067 40.1119 153.296 40.3401 152.21 40.3401H143.895V69.0842H152.21C153.296 69.0842 154.067 69.3408 154.525 69.8541C155.039 70.3103 155.296 71.0803 155.296 72.1639V82.3441C155.296 83.4277 155.039 84.2261 154.525 84.7394C154.067 85.1957 153.296 85.4238 152.21 85.4238H115.693Z" fill="white"/>
<path d="M177.452 85.4238H164.68C163.594 85.4238 162.794 85.1957 162.28 84.7394C161.822 84.2261 161.594 83.4277 161.594 82.3441V26.9091C161.594 25.8255 161.822 25.0555 162.28 24.5993C162.794 24.086 163.594 23.8293 164.68 23.8293H178.481C179.395 23.8293 180.138 24.029 180.71 24.4282C181.338 24.8274 181.91 25.4833 182.424 26.3958L190.139 40.3401C190.425 40.8534 190.653 41.2241 190.825 41.4522C191.053 41.6803 191.339 41.7944 191.682 41.7944H192.453C192.796 41.7944 193.053 41.6803 193.225 41.4522C193.453 41.2241 193.711 40.8534 193.996 40.3401L201.626 26.3958C202.14 25.4833 202.683 24.8274 203.254 24.4282C203.883 24.029 204.654 23.8293 205.569 23.8293H219.456C220.541 23.8293 221.313 24.086 221.77 24.5993C222.284 25.0555 222.542 25.8255 222.542 26.9091V82.3441C222.542 83.4277 222.284 84.2261 221.77 84.7394C221.313 85.1957 220.541 85.4238 219.456 85.4238H206.255C205.169 85.4238 204.369 85.1957 203.854 84.7394C203.397 84.2261 203.169 83.4277 203.169 82.3441V52.2312L198.111 61.5559C197.597 62.5255 196.968 63.2384 196.225 63.6946C195.539 64.0939 194.654 64.2935 193.568 64.2935H190.139C189.053 64.2935 188.139 64.0939 187.396 63.6946C186.71 63.2384 186.11 62.5255 185.596 61.5559L180.538 52.2312V82.3441C180.538 83.4277 180.281 84.2261 179.767 84.7394C179.31 85.1957 178.538 85.4238 177.452 85.4238Z" fill="white"/>
<path d="M272.914 85.4238H233.139C232.054 85.4238 231.254 85.1957 230.739 84.7394C230.282 84.2261 230.053 83.4277 230.053 82.3441V26.9091C230.053 25.8255 230.282 25.0555 230.739 24.5993C231.254 24.086 232.054 23.8293 233.139 23.8293H272.914C274 23.8293 274.771 24.086 275.229 24.5993C275.743 25.0555 276 25.8255 276 26.9091V36.9182C276 38.0018 275.743 38.8002 275.229 39.3135C274.771 39.7698 274 39.9979 272.914 39.9979H249.255V46.5851H265.971C267.056 46.5851 267.828 46.8417 268.285 47.355C268.799 47.8113 269.057 48.5812 269.057 49.6648V58.8184C269.057 59.902 268.799 60.7005 268.285 61.2137C267.828 61.67 267.056 61.8981 265.971 61.8981H249.255V69.2552H272.914C274 69.2552 274.771 69.5119 275.229 70.0252C275.743 70.4814 276 71.2514 276 72.335V82.3441C276 83.4277 275.743 84.2261 275.229 84.7394C274.771 85.1957 274 85.4238 272.914 85.4238Z" fill="white"/>
<path d="M9.21576 19.438H0.942521C0.610893 19.438 0.366536 19.369 0.209449 19.2311C0.0698163 19.0758 0 18.8344 0 18.5067V15.48C0 15.1523 0.0698163 14.9194 0.209449 14.7815C0.366536 14.6263 0.610893 14.5487 0.942521 14.5487H7.98524C8.21215 14.5487 8.37796 14.4797 8.48269 14.3417C8.60487 14.1865 8.66595 14.0054 8.66595 13.7984C8.66595 13.5052 8.60487 13.2897 8.48269 13.1517C8.37796 13.0137 8.21215 12.9361 7.98524 12.9189L4.05808 12.3756C2.83629 12.2031 1.85013 11.8065 1.09961 11.1856C0.366536 10.5647 0 9.52994 0 8.08124V5.36493C0 3.89898 0.479987 2.77796 1.43996 2.00188C2.39994 1.20854 3.72645 0.811872 5.41949 0.811872H12.7502C13.0818 0.811872 13.3175 0.889481 13.4571 1.0447C13.6142 1.18267 13.6927 1.4155 13.6927 1.74318V4.82167C13.6927 5.14935 13.6142 5.3908 13.4571 5.54602C13.3175 5.68399 13.0818 5.75297 12.7502 5.75297H6.65001C6.4231 5.75297 6.24856 5.83058 6.12638 5.9858C6.00421 6.12377 5.94312 6.30486 5.94312 6.52906C5.94312 6.75326 6.00421 6.94298 6.12638 7.09819C6.24856 7.25341 6.4231 7.33964 6.65001 7.35689L10.551 7.87428C11.7728 8.04675 12.7589 8.44341 13.5095 9.06429C14.26 9.68516 14.6353 10.7199 14.6353 12.1686V14.885C14.6353 16.3509 14.1465 17.4805 13.1691 18.2739C12.2091 19.05 10.8913 19.438 9.21576 19.438Z" fill="white"/>
<path d="M24.8361 19.438H20.5947C20.2631 19.438 20.0187 19.369 19.8617 19.2311C19.722 19.0758 19.6522 18.8344 19.6522 18.5067V5.80471H15.8036C15.472 5.80471 15.2276 5.73573 15.0705 5.59775C14.9309 5.44254 14.8611 5.20109 14.8611 4.8734V1.74318C14.8611 1.4155 14.9309 1.18267 15.0705 1.0447C15.2276 0.889481 15.472 0.811872 15.8036 0.811872H29.6272C29.9588 0.811872 30.1945 0.889481 30.3341 1.0447C30.4912 1.18267 30.5697 1.4155 30.5697 1.74318V4.8734C30.5697 5.20109 30.4912 5.44254 30.3341 5.59775C30.1945 5.73573 29.9588 5.80471 29.6272 5.80471H25.7786V18.5067C25.7786 18.8344 25.7 19.0758 25.543 19.2311C25.4033 19.369 25.1677 19.438 24.8361 19.438Z" fill="white"/>
<path d="M47.8558 14.5487C47.8558 15.342 47.7337 16.0663 47.4893 16.7217C47.2624 17.3598 46.8435 17.9117 46.2326 18.3774C45.6392 18.8258 44.8188 19.1793 43.7716 19.438C42.7243 19.6967 41.3891 19.8261 39.7659 19.8261C38.1426 19.8261 36.8074 19.6967 35.7602 19.438C34.7129 19.1793 33.8838 18.8258 33.2729 18.3774C32.6795 17.9117 32.2606 17.3598 32.0162 16.7217C31.7893 16.0663 31.6759 15.342 31.6759 14.5487V1.74318C31.6759 1.4155 31.7457 1.18267 31.8853 1.0447C32.0424 0.889481 32.2868 0.811872 32.6184 0.811872H36.7289C37.0605 0.811872 37.2961 0.889481 37.4357 1.0447C37.5928 1.18267 37.6714 1.4155 37.6714 1.74318V13.5397C37.6714 13.8847 37.8023 14.1779 38.0641 14.4193C38.3259 14.6435 38.9106 14.7556 39.8182 14.7556C40.7433 14.7556 41.3367 14.6435 41.5985 14.4193C41.8604 14.1779 41.9913 13.8847 41.9913 13.5397V1.74318C41.9913 1.4155 42.0611 1.18267 42.2007 1.0447C42.3578 0.889481 42.6021 0.811872 42.9338 0.811872H46.9133C47.2449 0.811872 47.4806 0.889481 47.6202 1.0447C47.7773 1.18267 47.8558 1.4155 47.8558 1.74318V14.5487Z" fill="white"/>
<path d="M59.7969 19.438H50.9738C50.6422 19.438 50.3979 19.369 50.2408 19.2311C50.1011 19.0758 50.0313 18.8344 50.0313 18.5067V1.74318C50.0313 1.4155 50.1011 1.18267 50.2408 1.0447C50.3979 0.889481 50.6422 0.811872 50.9738 0.811872H59.7969C61.9786 0.811872 63.5931 1.24303 64.6404 2.10535C65.7051 2.96768 66.2374 4.29565 66.2374 6.08928V14.1606C66.2374 15.9542 65.7051 17.2822 64.6404 18.1445C63.5931 19.0068 61.9786 19.438 59.7969 19.438ZM55.9744 5.75297V14.5487H59.09C59.5089 14.5487 59.8143 14.4452 60.0063 14.2382C60.2158 14.0313 60.3205 13.7122 60.3205 13.281V6.99471C60.3205 6.56355 60.2158 6.25312 60.0063 6.06341C59.8143 5.85645 59.5089 5.75297 59.09 5.75297H55.9744Z" fill="white"/>
<path d="M68.7795 19.438C68.4478 19.438 68.2035 19.369 68.0464 19.2311C67.9068 19.0758 67.8369 18.8344 67.8369 18.5067V15.4282C67.8369 15.1005 67.9068 14.8677 68.0464 14.7297C68.2035 14.5745 68.4478 14.4969 68.7795 14.4969H71.3714V5.80471H68.7795C68.4478 5.80471 68.2035 5.73573 68.0464 5.59775C67.9068 5.44254 67.8369 5.20109 67.8369 4.8734V1.74318C67.8369 1.4155 67.9068 1.18267 68.0464 1.0447C68.2035 0.889481 68.4478 0.811872 68.7795 0.811872H79.9326C80.2643 0.811872 80.4999 0.889481 80.6395 1.0447C80.7966 1.18267 80.8751 1.4155 80.8751 1.74318V4.8734C80.8751 5.20109 80.7966 5.44254 80.6395 5.59775C80.4999 5.73573 80.2643 5.80471 79.9326 5.80471H77.3931V14.4969H79.9326C80.2643 14.4969 80.4999 14.5745 80.6395 14.7297C80.7966 14.8677 80.8751 15.1005 80.8751 15.4282V18.5067C80.8751 18.8344 80.7966 19.0758 80.6395 19.2311C80.4999 19.369 80.2643 19.438 79.9326 19.438H68.7795Z" fill="white"/>
<path d="M98.7691 14.5487C98.7691 15.342 98.6469 16.0663 98.4026 16.7217C98.1757 17.3598 97.7568 17.9117 97.1459 18.3774C96.5525 18.8258 95.7234 19.1793 94.6587 19.438C93.6114 19.6967 92.2762 19.8261 90.653 19.8261C89.0297 19.8261 87.6858 19.6967 86.6211 19.438C85.5564 19.1793 84.7186 18.8258 84.1077 18.3774C83.5143 17.9117 83.0954 17.3598 82.851 16.7217C82.6241 16.0663 82.5107 15.342 82.5107 14.5487V5.7271C82.5107 4.93377 82.6241 4.21804 82.851 3.57992C83.0954 2.92456 83.5143 2.36405 84.1077 1.8984C84.7186 1.43274 85.5564 1.07057 86.6211 0.811872C87.6858 0.553176 89.0297 0.423828 90.653 0.423828C92.2762 0.423828 93.6114 0.553176 94.6587 0.811872C95.7234 1.07057 96.5525 1.43274 97.1459 1.8984C97.7568 2.36405 98.1757 2.92456 98.4026 3.57992C98.6469 4.21804 98.7691 4.93377 98.7691 5.7271V14.5487ZM88.4538 13.6173C88.4538 13.9623 88.5847 14.2555 88.8465 14.4969C89.1083 14.7211 89.7105 14.8332 90.653 14.8332C91.5955 14.8332 92.1977 14.7211 92.4595 14.4969C92.7213 14.2555 92.8522 13.9623 92.8522 13.6173V6.65841C92.8522 6.33073 92.7213 6.05479 92.4595 5.83058C92.1977 5.58913 91.5955 5.46841 90.653 5.46841C89.7105 5.46841 89.1083 5.58913 88.8465 5.83058C88.5847 6.05479 88.4538 6.33073 88.4538 6.65841V13.6173Z" fill="white"/>
</svg>
