<svg width="756" height="489" viewBox="0 0 756 489" fill="none" xmlns="http://www.w3.org/2000/svg">
<path d="M810.165 59.577L643.428 219L635.654 226.432L628.806 218.139L468.45 23.9339L468.364 23.8295L468.281 23.7227C464.987 19.5063 460.778 16.0809 455.965 13.7046C451.354 11.4278 445.01 10.0629 439.392 10.0021C434.26 9.94658 430.032 10.9853 424.929 13.3689C420.065 15.6407 415.782 18.9744 412.397 23.119L412.369 23.1535L412.341 23.1877L250.171 218.166L243.359 226.357L235.615 219.041L69.1682 61.7876C63.7008 57.0382 56.9034 54.0565 49.6805 53.2486C42.3999 52.4343 35.0459 53.8688 28.6157 57.3543C22.186 60.8396 16.9942 66.205 13.737 72.7178C10.4801 79.2302 9.31267 86.5789 10.3899 93.7701L10.3932 93.7917L10.3963 93.8133L77.284 554H801.342L868.635 91.6784C868.635 91.6764 868.635 91.6744 868.635 91.6723M810.165 59.577L868.635 91.6723M810.165 59.577C815.636 54.9412 822.391 52.0528 829.549 51.2988C836.789 50.5361 844.089 51.9947 850.47 55.4759C856.85 58.9568 862.003 64.2917 865.247 70.7607C868.489 77.2274 869.67 84.5227 868.635 91.6723M810.165 59.577L868.635 91.6723" stroke="white" stroke-width="20"/>
</svg>
